<!DOCTYPE svg PUBLIC "-//W3C//DTD SVG 1.1//EN" "http://www.w3.org/Graphics/SVG/1.1/DTD/svg11.dtd">
<!-- Uploaded to: SVG Repo, www.svgrepo.com, Transformed by: SVG Repo Mixer Tools -->
<svg width="800px" height="800px" viewBox="-2 -2 24.00 24.00" version="1.1" xmlns="http://www.w3.org/2000/svg" xmlns:xlink="http://www.w3.org/1999/xlink" fill="#000000">
<g id="SVGRepo_bgCarrier" stroke-width="0">
<rect x="-2" y="-2" width="24.00" height="24.00" rx="0" fill="#ffffff" strokewidth="0"/>
</g>
<g id="SVGRepo_tracerCarrier" stroke-linecap="round" stroke-linejoin="round" stroke="#785700" stroke-width="1.36"> <title>chess [#1217]</title> <desc>Created with Sketch.</desc> <defs> </defs> <g id="Page-1" stroke="none" stroke-width="1" fill="none" fill-rule="evenodd"> <g id="Dribbble-Light-Preview" transform="translate(-260.000000, -2719.000000)" fill="#000000"> <g id="icons" transform="translate(56.000000, 160.000000)"> <path d="M214,2573 L218,2573 L218,2569 L214,2569 L214,2573 Z M210,2569 L214,2569 L214,2565 L210,2565 L210,2569 Z M222,2565 L218,2565 L218,2569 L222,2569 L222,2573 L218,2573 L218,2577 L214,2577 L214,2573 L210,2573 L210,2577 L206,2577 L206,2573 L210,2573 L210,2569 L206,2569 L206,2565 L210,2565 L210,2561 L214,2561 L214,2565 L218,2565 L218,2561 L222,2561 L222,2565 Z M204,2579 L224,2579 L224,2559 L204,2559 L204,2579 Z" id="chess-[#1217]"> </path> </g> </g> </g> </g>
<g id="SVGRepo_iconCarrier"> <title>chess [#1217]</title> <desc>Created with Sketch.</desc> <defs> </defs> <g id="Page-1" stroke-width="0.0002" fill="none" fill-rule="evenodd"> <g id="Dribbble-Light-Preview" transform="translate(-260.000000, -2719.000000)" fill="#000000"> <g id="icons" transform="translate(56.000000, 160.000000)"> <path d="M214,2573 L218,2573 L218,2569 L214,2569 L214,2573 Z M210,2569 L214,2569 L214,2565 L210,2565 L210,2569 Z M222,2565 L218,2565 L218,2569 L222,2569 L222,2573 L218,2573 L218,2577 L214,2577 L214,2573 L210,2573 L210,2577 L206,2577 L206,2573 L210,2573 L210,2569 L206,2569 L206,2565 L210,2565 L210,2561 L214,2561 L214,2565 L218,2565 L218,2561 L222,2561 L222,2565 Z M204,2579 L224,2579 L224,2559 L204,2559 L204,2579 Z" id="chess-[#1217]"> </path> </g> </g> </g> </g>
</svg>