<!DOCTYPE svg PUBLIC "-//W3C//DTD SVG 1.1//EN" "http://www.w3.org/Graphics/SVG/1.1/DTD/svg11.dtd">
<!-- Uploaded to: SVG Repo, www.svgrepo.com, Transformed by: SVG Repo Mixer Tools -->
<svg width="800px" height="800px" viewBox="-1.2 -1.2 26.40 26.40" xmlns="http://www.w3.org/2000/svg" fill="#000000" stroke="#000000" stroke-width="0.00024000000000000003">
<g id="SVGRepo_bgCarrier" stroke-width="0"/>
<g id="SVGRepo_tracerCarrier" stroke-linecap="round" stroke-linejoin="round" stroke="#ffffff" stroke-width="1.968"> <rect x="0" fill="none" width="24" height="24"/> <g> <path d="M19 3H5c-1.105 0-2 .895-2 2v14c0 1.105.895 2 2 2h14c1.105 0 2-.895 2-2V5c0-1.105-.895-2-2-2zM6 6h5v5H6V6zm4.5 13C9.12 19 8 17.88 8 16.5S9.12 14 10.5 14s2.5 1.12 2.5 2.5-1.12 2.5-2.5 2.5zm3-6l3-5 3 5h-6z"/> </g> </g>
<g id="SVGRepo_iconCarrier"> <rect x="0" fill="none" width="24" height="24"/> <g> <path d="M19 3H5c-1.105 0-2 .895-2 2v14c0 1.105.895 2 2 2h14c1.105 0 2-.895 2-2V5c0-1.105-.895-2-2-2zM6 6h5v5H6V6zm4.5 13C9.12 19 8 17.88 8 16.5S9.12 14 10.5 14s2.5 1.12 2.5 2.5-1.12 2.5-2.5 2.5zm3-6l3-5 3 5h-6z"/> </g> </g>
</svg>