<svg xmlns="http://www.w3.org/2000/svg" xmlns:xlink="http://www.w3.org/1999/xlink" width="500" zoomAndPan="magnify" viewBox="0 0 375 374.999991" height="500" preserveAspectRatio="xMidYMid meet" version="1.0"><defs><g/><clipPath id="1a20d39665"><path d="M 226.886719 148.316406 L 270.386719 148.316406 L 270.386719 170.816406 L 226.886719 170.816406 Z M 226.886719 148.316406 " clip-rule="nonzero"/></clipPath><clipPath id="809e5e6c28"><path d="M 98 143 L 130 143 L 130 176 L 98 176 Z M 98 143 " clip-rule="nonzero"/></clipPath><clipPath id="3ad15abc35"><path d="M 98.085938 159.453125 L 115.0625 143.566406 L 129.925781 159.445312 L 112.949219 175.335938 Z M 98.085938 159.453125 " clip-rule="nonzero"/></clipPath><clipPath id="e24cab09fb"><path d="M 98.085938 159.453125 L 115.0625 143.566406 L 129.925781 159.445312 L 112.949219 175.335938 Z M 98.085938 159.453125 " clip-rule="nonzero"/></clipPath><clipPath id="3ae87cd66c"><path d="M 166 222 L 186 222 L 186 242 L 166 242 Z M 166 222 " clip-rule="nonzero"/></clipPath><clipPath id="f89cd88dc4"><path d="M 166.15625 232.027344 L 176.558594 222.289062 L 185.785156 232.148438 L 175.378906 241.886719 Z M 166.15625 232.027344 " clip-rule="nonzero"/></clipPath><clipPath id="feb784188f"><path d="M 166.15625 232.027344 L 176.558594 222.289062 L 185.785156 232.148438 L 175.378906 241.886719 Z M 166.15625 232.027344 " clip-rule="nonzero"/></clipPath><clipPath id="6f00d6bbd7"><path d="M 256.152344 216.875 L 285.402344 216.875 L 285.402344 231.875 L 256.152344 231.875 Z M 256.152344 216.875 " clip-rule="nonzero"/></clipPath></defs><g clip-path="url(#1a20d39665)"><path fill="#000000" d="M 226.871094 159.695312 L 226.871094 159.519531 C 247.152344 159.519531 248.625 157.828125 248.625 148.34375 L 248.960938 148.34375 C 248.960938 157.828125 250.4375 159.519531 270.722656 159.519531 L 270.722656 159.695312 C 250.4375 159.695312 248.960938 161.382812 248.960938 170.871094 L 248.625 170.871094 C 248.625 161.382812 247.152344 159.695312 226.871094 159.695312 " fill-opacity="1" fill-rule="evenodd"/></g><path fill="#000000" d="M 182.460938 151.070312 C 183.816406 162.417969 171.402344 184.160156 151.101562 204.417969 C 141.046875 214.449219 130.621094 222.550781 121.285156 228.003906 C 119.929688 216.660156 132.328125 194.917969 152.644531 174.664062 C 162.679688 164.652344 173.074219 156.5625 182.402344 151.109375 Z M 204.359375 143.277344 L 204.53125 143.277344 C 207.449219 143.308594 209.804688 144.101562 211.445312 145.753906 C 219.675781 153.964844 206.6875 180.253906 182.457031 204.425781 C 163.25 223.582031 142.703125 235.699219 130.917969 235.800781 L 130.746094 235.800781 C 127.75 235.800781 125.328125 235 123.65625 233.335938 C 123.105469 232.777344 122.648438 232.152344 122.289062 231.457031 C 132.101562 225.320312 142.789062 216.796875 153.15625 206.464844 C 175.199219 184.476562 189.0625 160.949219 188.949219 147.625 C 194.902344 144.792969 200.191406 143.269531 204.359375 143.277344 Z M 181.441406 147.621094 C 171.628906 153.75 160.933594 162.28125 150.578125 172.609375 C 128.539062 194.597656 114.6875 218.128906 114.785156 231.453125 C 104.570312 236.3125 96.289062 237.320312 92.285156 233.332031 C 84.054688 225.121094 97.042969 198.832031 121.273438 174.664062 C 145.503906 150.492188 171.855469 137.535156 180.082031 145.742188 C 180.636719 146.296875 181.097656 146.921875 181.457031 147.621094 Z M 209.632812 136.902344 C 212.945312 136.941406 215.636719 137.84375 217.5 139.707031 C 226.863281 149.050781 212.089844 178.960938 184.519531 206.464844 C 162.667969 228.273438 139.277344 242.058594 125.867188 242.171875 L 125.671875 242.171875 C 122.261719 242.171875 119.511719 241.265625 117.609375 239.367188 C 116.519531 238.257812 115.769531 236.960938 115.347656 235.464844 C 102.109375 242.480469 91.242188 244.355469 86.242188 239.367188 C 76.878906 230.027344 91.65625 200.117188 119.226562 172.613281 C 146.792969 145.109375 176.773438 130.367188 186.136719 139.710938 C 187.222656 140.816406 187.976562 142.117188 188.394531 143.605469 C 196.597656 139.265625 203.886719 136.902344 209.4375 136.902344 Z M 209.632812 136.902344 " fill-opacity="1" fill-rule="evenodd"/><g clip-path="url(#809e5e6c28)"><g clip-path="url(#3ad15abc35)"><g clip-path="url(#e24cab09fb)"><path fill="#000000" d="M 115.039062 143.835938 L 114.914062 143.835938 L 114.792969 143.832031 C 113.980469 158.421875 111.554688 159.457031 98.25 159.316406 L 98.234375 159.5625 C 111.539062 159.699219 113.847656 160.785156 113.035156 175.375 L 113.28125 175.378906 C 114.09375 160.789062 116.519531 159.753906 129.824219 159.890625 L 129.839844 159.648438 C 116.535156 159.507812 114.226562 158.425781 115.039062 143.835938 " fill-opacity="1" fill-rule="evenodd"/></g></g></g><path stroke-linecap="butt" transform="matrix(1.018471, 0, 0, 1.018471, 122.490128, 170.818393)" fill="none" stroke-linejoin="miter" d="M 5.452134 14.856413 L 5.233516 16.428929 L 4.37822 22.450517 L 4.171108 23.980844 L 3.745378 27.010815 C 3.703189 27.356002 3.660999 27.616809 3.61881 27.781732 C 3.52676 27.988844 3.442381 28.165272 3.315813 28.37622 C 3.235269 28.552648 3.016651 28.80195 2.682971 29.062757 C 2.506542 29.22768 2.161355 29.530677 1.609057 29.998596 L 3.57662 29.998596 C 5.191326 29.998596 6.26524 29.960242 6.817538 29.918053 C 7.630645 29.833674 8.221297 29.615056 8.608673 29.312059 C 9.034403 29.020568 9.37959 28.510459 9.544512 27.739542 C 9.71327 27.145054 9.974078 25.906218 10.234885 23.980844 L 10.441997 22.450517 L 11.297293 16.428929 C 11.377836 16.01087 11.420026 15.753898 11.420026 15.62733 C 11.504405 15.366522 11.546594 15.15941 11.638644 15.063525 C 11.765212 14.940792 11.930135 14.898602 12.148753 14.898602 C 12.317511 14.856413 12.616673 14.856413 13.088428 14.856413 L 12.869809 16.428929 L 12.02602 22.450517 L 11.807402 23.980844 L 10.952106 29.998596 C 13.168971 29.998596 14.576565 29.918053 15.178724 29.791485 C 15.773212 29.615056 16.202777 29.407944 16.45975 29.147136 C 16.79343 28.80195 17.096427 28.249651 17.265185 27.520924 C 17.441614 26.926436 17.606536 25.771979 17.867344 23.980844 L 18.074456 22.450517 L 18.929751 16.428929 C 19.01413 16.05306 19.05632 15.792252 19.05632 15.669519 C 19.148369 15.366522 19.190559 15.2016 19.274938 15.105714 C 19.397671 14.982981 19.574099 14.898602 19.742857 14.898602 C 19.90778 14.856413 20.295156 14.856413 20.897314 14.856413 L 20.678696 16.428929 L 19.827236 22.450517 L 19.616289 23.980844 L 18.764829 29.998596 C 20.897314 29.998596 22.262719 29.918053 22.857207 29.833674 C 23.585934 29.657245 24.096043 29.407944 24.429724 29.020568 C 24.771075 28.594838 24.989693 27.988844 25.158451 27.187244 C 25.281184 26.627274 25.461448 25.564867 25.66856 23.980844 L 25.887178 22.450517 L 26.742473 16.428929 L 26.949585 14.856413 C 27.210393 12.980899 27.333126 11.784253 27.333126 11.231954 C 27.333126 10.461038 27.210393 9.908739 26.907396 9.567388 C 26.646588 9.264391 26.232364 9.053443 25.584181 8.9729 C 25.074072 8.877015 24.218776 8.834825 23.022129 8.834825 C 22.772828 8.834825 22.347098 8.834825 21.741104 8.877015 L 12.3597 8.877015 C 11.765212 8.834825 11.297293 8.834825 11.036485 8.834825 C 9.847509 8.834825 8.992214 8.877015 8.482105 8.9729 C 7.753378 9.053443 7.201079 9.264391 6.859728 9.605742 C 6.472352 9.950928 6.17319 10.587606 5.962243 11.481256 C 5.877864 12.04506 5.701435 13.149657 5.452134 14.856413 Z M 47.173682 8.834825 L 30.662259 8.834825 L 30.662259 9.567388 C 30.662259 10.679656 30.704448 11.523445 30.704448 12.04506 C 30.788827 12.980899 30.953749 13.617577 31.214557 14.001117 C 31.517554 14.388493 32.027663 14.637795 32.787074 14.772034 C 33.308689 14.814224 34.371096 14.856413 35.901423 14.856413 L 45.298168 14.856413 C 45.244473 15.324333 45.202283 15.62733 45.160094 15.792252 C 45.160094 15.96101 45.12174 16.095249 45.037361 16.179628 C 44.952982 16.264007 44.818743 16.344551 44.649985 16.38674 C 44.569441 16.38674 44.308634 16.428929 43.974953 16.428929 L 35.057634 16.428929 C 33.477447 16.428929 32.361343 16.482625 31.766856 16.563169 C 31.038128 16.647548 30.48583 16.908355 30.102289 17.284225 C 29.768609 17.625576 29.465612 18.315949 29.246994 19.336167 C 29.162615 19.846276 28.997692 20.866494 28.779074 22.408328 L 28.529773 23.980844 C 28.311155 25.6876 28.184586 26.845893 28.142397 27.436545 L 28.142397 27.697353 C 28.142397 28.37622 28.226776 28.844139 28.487583 29.189326 C 28.736885 29.488487 29.162615 29.699435 29.768609 29.833674 C 30.363097 29.918053 31.686312 29.998596 33.738254 29.998596 L 42.985419 29.998596 C 45.12174 29.998596 46.483309 29.918053 47.089303 29.833674 C 47.683791 29.699435 48.151711 29.530677 48.493062 29.269869 C 48.880438 28.978378 49.171929 28.510459 49.348357 27.9083 C 49.555469 27.313812 49.816277 26.032787 50.065578 23.980844 L 50.671573 19.635329 L 51.346604 14.856413 C 51.565222 13.31458 51.691791 12.294362 51.691791 11.784253 C 51.73398 11.523445 51.73398 11.358523 51.73398 11.189765 C 51.73398 10.296115 51.526868 9.690121 51.097303 9.39863 C 50.836495 9.180012 50.410765 9.053443 49.816277 8.9729 C 49.306168 8.877015 48.412518 8.834825 47.173682 8.834825 Z M 35.82088 22.408328 L 44.224255 22.408328 C 44.182065 22.876247 44.139876 23.179244 44.097686 23.344167 C 44.059332 23.512925 44.017143 23.689353 43.921258 23.769897 C 43.879068 23.854276 43.798525 23.896465 43.629767 23.938655 C 43.549223 23.938655 43.288416 23.980844 42.943229 23.980844 L 34.578208 23.980844 C 34.674093 23.647164 34.716283 23.386356 34.716283 23.259788 C 34.758472 22.918437 34.800662 22.711325 34.881205 22.61544 C 34.965584 22.531061 35.057634 22.450517 35.184202 22.450517 C 35.268581 22.408328 35.475693 22.408328 35.82088 22.408328 Z M 52.543251 8.834825 C 53.4369 9.605742 53.908655 10.115851 54.073578 10.376659 C 54.250006 10.629795 54.418764 11.147575 54.499308 11.949175 L 55.312414 17.709955 L 56.209899 24.030705 C 56.386328 25.135301 56.512896 25.948408 56.55125 26.416327 C 56.812058 27.739542 57.103549 28.594838 57.533114 29.062757 C 57.958844 29.488487 58.687571 29.791485 59.707789 29.918053 C 60.302277 29.960242 61.418381 29.998596 63.125136 29.998596 L 67.133136 29.998596 C 68.414161 29.998596 69.311646 29.960242 69.821755 29.918053 C 70.884163 29.833674 71.61289 29.572866 72.03862 29.189326 C 72.425996 28.80195 72.717487 28.165272 72.936105 27.271623 C 73.058838 26.719324 73.239102 25.603221 73.446214 23.980844 L 74.132752 19.07536 L 74.72724 14.898602 C 74.934352 13.448819 75.072427 12.42093 75.110781 11.910821 L 75.110781 11.147575 C 75.110781 10.376659 74.976541 9.82436 74.642861 9.525198 C 74.339864 9.180012 73.791401 9.015089 72.978295 8.93071 C 72.468186 8.834825 71.61289 8.834825 70.374054 8.834825 L 69.518758 8.834825 L 68.705652 14.346304 L 67.604891 22.450517 C 67.520512 22.960626 67.478322 23.259788 67.424627 23.428546 C 67.382437 23.604974 67.301894 23.731543 67.217515 23.812086 C 67.133136 23.896465 67.010403 23.938655 66.791785 23.980844 L 62.269841 23.980844 L 60.988815 14.814224 C 60.866082 13.74031 60.728007 13.023089 60.647464 12.597359 C 60.563085 12.167793 60.520896 11.699874 60.394327 11.097715 C 60.302277 10.503227 60.137355 10.15804 59.876547 9.993118 C 59.62341 9.82436 59.404792 9.647931 59.19768 9.39863 C 59.032758 9.137822 58.687571 8.9729 58.085413 8.9729 C 57.533114 8.93071 57.061359 8.877015 56.55125 8.877015 C 56.083331 8.834825 55.354603 8.834825 54.334385 8.834825 Z M 84.668613 8.877015 C 82.701049 8.877015 81.420024 8.877015 80.825536 8.9729 C 80.054619 9.053443 79.460131 9.30658 79.034401 9.690121 C 78.647025 10.077497 78.347863 10.764035 78.136916 11.784253 L 77.626807 14.856413 L 76.345781 23.980844 C 76.127163 25.6876 76.00443 26.803703 75.962241 27.356002 L 75.962241 27.697353 C 75.962241 28.249651 76.042784 28.675381 76.223048 29.020568 C 76.47235 29.407944 76.89808 29.657245 77.492568 29.833674 C 78.094727 29.918053 79.199324 29.998596 80.909915 29.998596 L 97.030127 29.998596 L 97.030127 29.269869 C 97.030127 28.042539 97.030127 27.145054 96.945748 26.627274 C 96.907394 25.729789 96.738636 25.093112 96.397285 24.751761 C 96.136477 24.406574 95.664722 24.199462 94.989691 24.115083 C 94.521771 24.030705 93.447857 23.980844 91.790962 23.980844 L 82.398052 23.980844 C 82.490102 23.562785 82.532292 23.259788 82.532292 23.137055 C 82.574481 22.876247 82.61667 22.711325 82.701049 22.61544 C 82.781593 22.531061 82.919668 22.450517 83.042401 22.450517 L 92.634751 22.450517 C 94.134395 22.450517 95.154613 22.408328 95.706912 22.323949 C 96.562207 22.18971 97.164366 21.940408 97.551742 21.595222 C 97.885422 21.250035 98.188419 20.659382 98.353342 19.846276 C 98.529771 19.251788 98.698528 18.135685 98.917147 16.428929 L 99.166448 14.856413 C 99.342877 13.491008 99.469445 12.597359 99.507799 12.08725 C 99.549989 11.742063 99.549989 11.439066 99.549989 11.189765 C 99.549989 10.338305 99.385066 9.73231 98.959336 9.440819 C 98.61415 9.137822 97.969801 8.9729 97.030127 8.93071 C 96.520018 8.877015 95.4998 8.877015 93.957966 8.877015 Z M 84.752992 14.856413 L 93.064317 14.856413 C 93.022127 15.366522 92.979938 15.669519 92.937748 15.834442 C 92.937748 16.01087 92.895559 16.137439 92.81118 16.221818 C 92.730636 16.302361 92.550372 16.38674 92.301071 16.428929 L 83.471966 16.428929 C 83.55251 15.91882 83.594699 15.62733 83.594699 15.49309 C 83.679078 15.282143 83.721267 15.2016 83.771128 15.105714 C 83.855507 15.021335 83.939886 14.940792 84.024265 14.898602 C 84.104808 14.856413 84.365616 14.856413 84.752992 14.856413 Z M 101.678639 14.856413 L 100.063933 26.416327 C 100.021744 26.884247 99.979554 27.187244 99.929694 27.356002 C 99.887504 27.57462 99.845315 27.781732 99.760936 27.946654 C 99.680392 28.207462 99.461774 28.468269 99.128094 28.80195 C 98.951665 29.020568 98.606479 29.407944 98.011991 29.998596 L 99.803125 29.998596 C 100.7428 29.998596 101.387148 29.960242 101.770689 29.960242 C 102.668174 29.918053 103.343205 29.875864 103.772771 29.791485 C 104.459309 29.615056 104.927228 29.365754 105.260908 28.978378 C 105.521716 28.637027 105.728828 28.126918 105.905257 27.436545 C 106.074015 26.845893 106.250443 25.6876 106.457555 23.980844 L 107.481609 16.605358 C 107.573658 16.05306 107.658037 15.711709 107.700227 15.58514 C 107.78077 15.324333 107.865149 15.15941 107.949528 15.063525 C 108.083767 14.982981 108.290879 14.898602 108.551687 14.898602 C 108.762634 14.856413 109.188364 14.856413 109.832713 14.856413 L 117.08163 14.856413 C 118.872765 14.856413 120.031058 14.814224 120.583356 14.772034 C 121.477006 14.637795 122.113683 14.472872 122.497224 14.127686 C 122.926789 13.794005 123.225951 13.191847 123.436898 12.378741 C 123.613327 11.784253 123.778249 10.629795 124.039057 8.834825 L 107.658037 8.834825 C 106.158393 8.834825 105.138175 8.877015 104.543687 9.015089 C 103.895504 9.095633 103.427584 9.30658 103.093904 9.647931 C 102.710363 9.993118 102.407366 10.679656 102.200254 11.61933 C 102.104369 12.129439 101.939447 13.230201 101.678639 14.856413 Z M 134.444514 0.0977701 C 132.392572 0.0977701 131.069356 0.13996 130.474869 0.266528 C 129.838191 0.347071 129.320411 0.56569 128.986731 0.910876 C 128.641544 1.244556 128.338547 1.808361 128.131435 2.567772 C 128.004867 3.127741 127.786249 4.316717 127.529277 6.107852 L 126.589602 13.065278 L 125.738142 18.948791 L 124.633545 26.884247 C 124.591355 27.229433 124.549166 27.478735 124.506977 27.655163 C 124.464787 27.823921 124.372737 27.946654 124.288358 28.126918 C 124.203979 28.291841 123.985361 28.552648 123.69387 28.844139 C 123.517442 29.020568 123.141572 29.365754 122.497224 29.960242 L 124.506977 29.960242 C 126.38249 29.960242 127.621326 29.918053 128.215814 29.833674 C 128.944541 29.657245 129.45465 29.407944 129.799837 29.062757 C 130.129682 28.675381 130.39049 28.084729 130.559247 27.229433 C 130.735676 26.677135 130.900599 25.603221 131.119217 24.030705 L 132.350382 15.15941 L 133.547029 6.617961 Z M 134.785865 8.796471 C 135.215431 9.222201 135.464732 9.525198 135.598971 9.690121 C 135.848273 9.950928 135.974841 10.20023 136.066891 10.418848 C 136.15127 10.587606 136.15127 10.764035 136.15127 11.013336 C 136.15127 11.189765 136.15127 11.481256 136.066891 11.910821 L 135.641161 14.814224 L 134.360135 23.980844 C 134.225896 25.012568 134.141517 25.771979 134.099327 26.197709 C 134.014948 26.803703 133.972759 27.271623 133.972759 27.655163 C 133.972759 28.207462 134.057138 28.637027 134.225896 28.936189 C 134.486703 29.407944 134.996812 29.699435 135.848273 29.875864 C 136.442761 29.960242 137.558864 29.998596 139.181241 29.998596 L 148.992209 29.998596 C 148.90016 30.769513 148.815781 31.321812 148.731402 31.582619 C 148.689212 31.9163 148.566479 32.177107 148.390051 32.34203 C 148.263482 32.522294 148.002675 32.602837 147.668994 32.687216 C 147.450376 32.687216 146.982457 32.729406 146.21154 32.729406 L 138.839889 32.729406 C 137.558864 32.729406 136.619189 32.729406 136.10908 32.813785 C 135.380353 32.852139 134.828055 33.032403 134.402324 33.281704 C 133.892215 33.580866 133.46265 34.229049 133.121299 35.249268 C 132.952541 35.801566 132.691733 36.956023 132.308193 38.747158 L 147.753373 38.747158 C 150.054617 38.747158 151.504401 38.655108 152.106559 38.48635 C 152.701047 38.321428 153.126777 38.10281 153.387585 37.757623 C 153.721265 37.343399 154.024262 36.695216 154.189185 35.843755 C 154.327259 35.291457 154.492182 34.271239 154.657104 32.729406 L 155.04448 29.998596 L 155.899776 23.980844 L 157.180802 14.814224 C 157.437774 12.93871 157.564342 11.699874 157.564342 11.147575 C 157.564342 10.971147 157.564342 10.806224 157.522153 10.721845 C 157.522153 10.035307 157.303535 9.567388 156.877805 9.30658 C 156.544124 9.053443 155.899776 8.877015 155.002291 8.834825 C 154.492182 8.796471 153.514153 8.796471 151.97232 8.796471 L 151.117025 14.814224 L 150.054617 22.450517 C 149.970238 22.791868 149.931884 23.04117 149.889695 23.221434 C 149.847505 23.428546 149.75162 23.604974 149.671076 23.731543 C 149.586697 23.812086 149.502319 23.854276 149.32589 23.896465 C 149.203157 23.938655 148.815781 23.980844 148.221293 23.980844 L 140.454595 23.980844 L 141.735621 14.814224 C 141.992593 12.804471 142.161351 11.61933 142.161351 11.274144 L 142.161351 10.764035 C 142.161351 10.15804 142.076972 9.690121 141.827671 9.440819 C 141.609053 9.180012 141.221677 9.015089 140.673214 8.93071 C 140.243648 8.834825 139.514921 8.796471 138.452513 8.796471 Z M 160.506099 14.898602 L 160.287481 16.428929 L 159.43602 22.450517 L 159.225073 24.030705 L 158.799343 27.010815 C 158.757154 27.436545 158.714964 27.739542 158.634421 27.9083 C 158.580725 28.084729 158.496346 28.207462 158.415802 28.37622 C 158.289234 28.552648 158.070616 28.75976 157.736936 29.062757 C 157.560507 29.22768 157.21532 29.530677 156.663022 29.998596 L 158.634421 29.998596 C 160.287481 29.998596 161.403584 29.960242 161.998072 29.918053 C 162.933911 29.791485 163.582095 29.530677 163.965635 29.104947 C 164.299315 28.675381 164.602313 28.042539 164.767235 27.145054 C 164.901474 26.585085 165.070232 25.564867 165.28885 24.030705 L 165.495962 22.450517 L 166.351258 16.428929 C 166.435637 15.96101 166.473991 15.669519 166.473991 15.53528 C 166.55837 15.282143 166.692609 15.105714 166.776988 15.021335 C 166.861367 14.940792 167.026289 14.898602 167.206553 14.898602 C 167.287097 14.856413 167.413665 14.856413 167.590094 14.856413 C 167.755016 14.856413 167.923774 14.856413 168.142392 14.898602 L 175.955115 14.898602 L 175.736497 16.428929 L 174.881201 22.450517 L 174.674089 24.030705 L 173.818794 29.998596 C 175.955115 29.998596 177.316684 29.918053 177.911172 29.833674 C 178.639899 29.657245 179.150008 29.407944 179.483688 29.020568 C 179.744496 28.675381 179.963114 28.207462 180.128037 27.520924 C 180.296795 26.968626 180.473223 25.821839 180.722525 24.030705 L 180.941143 22.450517 L 181.796438 16.428929 L 182.00355 14.898602 C 182.264358 13.023089 182.390926 11.784253 182.390926 11.231954 C 182.390926 10.296115 182.179979 9.690121 181.754249 9.39863 C 181.409062 9.137822 180.764714 8.9729 179.871065 8.93071 C 179.441499 8.877015 178.847011 8.877015 178.07993 8.877015 L 166.09045 8.877015 C 164.86312 8.877015 163.965635 8.93071 163.40183 9.015089 C 162.64242 9.095633 162.040261 9.39863 161.695075 9.86655 C 161.403584 10.20023 161.142776 10.848414 160.977854 11.699874 C 160.893475 12.209983 160.717046 13.27239 160.506099 14.898602 Z M 160.506099 14.898602 " stroke="#000000" stroke-width="11.200008" stroke-opacity="1" stroke-miterlimit="4"/><g fill="#ebe9e7" fill-opacity="1"><g transform="translate(125.434146, 201.372523)"><g><path d="M 2.609375 -15.421875 L 2.390625 -13.8125 L 1.515625 -7.6875 L 1.296875 -6.125 L 0.875 -3.046875 C 0.828125 -2.6875 0.78125 -2.4375 0.734375 -2.265625 C 0.65625 -2.046875 0.5625 -1.875 0.4375 -1.65625 C 0.34375 -1.484375 0.125 -1.21875 -0.21875 -0.953125 C -0.390625 -0.78125 -0.734375 -0.484375 -1.296875 0 L 0.6875 0 C 2.34375 0 3.4375 -0.046875 4 -0.09375 C 4.828125 -0.171875 5.4375 -0.390625 5.828125 -0.6875 C 6.25 -1 6.609375 -1.515625 6.78125 -2.296875 C 6.953125 -2.90625 7.21875 -4.171875 7.46875 -6.125 L 7.6875 -7.6875 L 8.5625 -13.8125 C 8.640625 -14.25 8.6875 -14.515625 8.6875 -14.640625 C 8.78125 -14.90625 8.828125 -15.125 8.90625 -15.203125 C 9.03125 -15.34375 9.21875 -15.375 9.421875 -15.375 C 9.609375 -15.421875 9.90625 -15.421875 10.390625 -15.421875 L 10.171875 -13.8125 L 9.296875 -7.6875 L 9.078125 -6.125 L 8.21875 0 C 10.46875 0 11.90625 -0.09375 12.515625 -0.21875 C 13.125 -0.390625 13.5625 -0.609375 13.8125 -0.875 C 14.171875 -1.21875 14.46875 -1.78125 14.640625 -2.515625 C 14.8125 -3.125 14.984375 -4.296875 15.25 -6.125 L 15.46875 -7.6875 L 16.34375 -13.8125 C 16.421875 -14.203125 16.46875 -14.46875 16.46875 -14.59375 C 16.5625 -14.90625 16.59375 -15.078125 16.6875 -15.171875 C 16.8125 -15.296875 16.984375 -15.375 17.15625 -15.375 C 17.34375 -15.421875 17.734375 -15.421875 18.34375 -15.421875 L 18.125 -13.8125 L 17.25 -7.6875 L 17.03125 -6.125 L 16.171875 0 C 18.34375 0 19.734375 -0.09375 20.34375 -0.171875 C 21.078125 -0.34375 21.59375 -0.609375 21.9375 -1 C 22.296875 -1.4375 22.515625 -2.046875 22.6875 -2.875 C 22.8125 -3.4375 22.984375 -4.515625 23.203125 -6.125 L 23.421875 -7.6875 L 24.296875 -13.8125 L 24.5 -15.421875 C 24.765625 -17.34375 24.90625 -18.546875 24.90625 -19.125 C 24.90625 -19.90625 24.765625 -20.46875 24.46875 -20.8125 C 24.203125 -21.125 23.765625 -21.328125 23.109375 -21.421875 C 22.59375 -21.515625 21.734375 -21.546875 20.515625 -21.546875 C 20.25 -21.546875 19.8125 -21.546875 19.203125 -21.515625 L 9.640625 -21.515625 C 9.03125 -21.546875 8.5625 -21.546875 8.296875 -21.546875 C 7.078125 -21.546875 6.21875 -21.515625 5.6875 -21.421875 C 4.953125 -21.328125 4.390625 -21.125 4.046875 -20.765625 C 3.65625 -20.421875 3.34375 -19.765625 3.125 -18.859375 C 3.046875 -18.296875 2.875 -17.15625 2.609375 -15.421875 Z M 2.609375 -15.421875 "/></g></g></g><g fill="#ebe9e7" fill-opacity="1"><g transform="translate(150.718603, 201.372523)"><g><path d="M 19.8125 -21.546875 L 3 -21.546875 L 3 -20.8125 C 3 -19.6875 3.046875 -18.8125 3.046875 -18.296875 C 3.125 -17.34375 3.296875 -16.6875 3.5625 -16.296875 C 3.875 -15.90625 4.390625 -15.640625 5.171875 -15.515625 C 5.6875 -15.46875 6.78125 -15.421875 8.34375 -15.421875 L 17.90625 -15.421875 C 17.859375 -14.953125 17.8125 -14.640625 17.765625 -14.46875 C 17.765625 -14.296875 17.734375 -14.171875 17.640625 -14.078125 C 17.5625 -13.984375 17.421875 -13.90625 17.25 -13.859375 C 17.15625 -13.859375 16.90625 -13.8125 16.5625 -13.8125 L 7.46875 -13.8125 C 5.859375 -13.8125 4.734375 -13.78125 4.125 -13.6875 C 3.390625 -13.59375 2.828125 -13.34375 2.4375 -12.953125 C 2.078125 -12.59375 1.78125 -11.90625 1.5625 -10.859375 C 1.484375 -10.34375 1.296875 -9.296875 1.09375 -7.734375 L 0.828125 -6.125 C 0.609375 -4.390625 0.484375 -3.21875 0.4375 -2.609375 L 0.4375 -2.34375 C 0.4375 -1.65625 0.515625 -1.171875 0.78125 -0.828125 C 1.046875 -0.515625 1.484375 -0.296875 2.078125 -0.171875 C 2.6875 -0.09375 4.046875 0 6.125 0 L 15.5625 0 C 17.734375 0 19.125 -0.09375 19.734375 -0.171875 C 20.34375 -0.296875 20.8125 -0.484375 21.15625 -0.734375 C 21.546875 -1.046875 21.859375 -1.515625 22.03125 -2.125 C 22.25 -2.734375 22.515625 -4.046875 22.765625 -6.125 L 23.375 -10.5625 L 24.078125 -15.421875 C 24.296875 -16.984375 24.421875 -18.03125 24.421875 -18.546875 C 24.46875 -18.8125 24.46875 -18.984375 24.46875 -19.15625 C 24.46875 -20.078125 24.25 -20.6875 23.8125 -20.984375 C 23.546875 -21.203125 23.109375 -21.328125 22.515625 -21.421875 C 21.984375 -21.515625 21.078125 -21.546875 19.8125 -21.546875 Z M 8.25 -7.734375 L 16.8125 -7.734375 C 16.765625 -7.25 16.734375 -6.953125 16.6875 -6.78125 C 16.640625 -6.609375 16.59375 -6.4375 16.515625 -6.34375 C 16.46875 -6.25 16.375 -6.21875 16.203125 -6.171875 C 16.125 -6.171875 15.859375 -6.125 15.515625 -6.125 L 7 -6.125 C 7.078125 -6.46875 7.125 -6.734375 7.125 -6.859375 C 7.171875 -7.21875 7.21875 -7.4375 7.296875 -7.515625 C 7.390625 -7.609375 7.46875 -7.6875 7.609375 -7.6875 C 7.6875 -7.734375 7.90625 -7.734375 8.25 -7.734375 Z M 8.25 -7.734375 "/></g></g></g><g fill="#ebe9e7" fill-opacity="1"><g transform="translate(175.568621, 201.372523)"><g><path d="M 0.4375 -21.546875 C 1.34375 -20.765625 1.828125 -20.25 2 -19.984375 C 2.171875 -19.734375 2.34375 -19.203125 2.4375 -18.375 L 3.265625 -12.515625 L 4.171875 -6.078125 C 4.34375 -4.953125 4.46875 -4.125 4.515625 -3.65625 C 4.78125 -2.296875 5.078125 -1.4375 5.515625 -0.953125 C 5.953125 -0.515625 6.6875 -0.21875 7.734375 -0.09375 C 8.34375 -0.046875 9.46875 0 11.203125 0 L 15.296875 0 C 16.59375 0 17.515625 -0.046875 18.03125 -0.09375 C 19.125 -0.171875 19.859375 -0.4375 20.296875 -0.828125 C 20.6875 -1.21875 20.984375 -1.875 21.203125 -2.78125 C 21.328125 -3.34375 21.515625 -4.46875 21.734375 -6.125 L 22.421875 -11.125 L 23.03125 -15.375 C 23.25 -16.859375 23.375 -17.90625 23.421875 -18.421875 L 23.421875 -19.203125 C 23.421875 -19.984375 23.296875 -20.546875 22.9375 -20.859375 C 22.640625 -21.203125 22.078125 -21.375 21.25 -21.46875 C 20.734375 -21.546875 19.859375 -21.546875 18.59375 -21.546875 L 17.734375 -21.546875 L 16.90625 -15.953125 L 15.78125 -7.6875 C 15.6875 -7.171875 15.640625 -6.859375 15.59375 -6.6875 C 15.5625 -6.515625 15.46875 -6.390625 15.375 -6.296875 C 15.296875 -6.21875 15.171875 -6.171875 14.953125 -6.125 L 10.34375 -6.125 L 9.03125 -15.46875 C 8.90625 -16.5625 8.78125 -17.296875 8.6875 -17.734375 C 8.609375 -18.15625 8.5625 -18.640625 8.4375 -19.25 C 8.34375 -19.859375 8.171875 -20.203125 7.90625 -20.375 C 7.640625 -20.546875 7.4375 -20.734375 7.21875 -20.984375 C 7.046875 -21.25 6.6875 -21.421875 6.078125 -21.421875 C 5.515625 -21.46875 5.046875 -21.515625 4.515625 -21.515625 C 4.046875 -21.546875 3.296875 -21.546875 2.265625 -21.546875 Z M 0.4375 -21.546875 "/></g></g></g><g fill="#ebe9e7" fill-opacity="1"><g transform="translate(199.419423, 201.372523)"><g><path d="M 9.296875 -21.515625 C 7.296875 -21.515625 6 -21.515625 5.390625 -21.421875 C 4.609375 -21.328125 4 -21.078125 3.5625 -20.6875 C 3.171875 -20.296875 2.875 -19.59375 2.65625 -18.546875 L 2.125 -15.421875 L 0.828125 -6.125 C 0.609375 -4.390625 0.484375 -3.265625 0.4375 -2.6875 L 0.4375 -2.34375 C 0.4375 -1.78125 0.515625 -1.34375 0.6875 -1 C 0.953125 -0.609375 1.390625 -0.34375 2 -0.171875 C 2.609375 -0.09375 3.734375 0 5.46875 0 L 21.90625 0 L 21.90625 -0.734375 C 21.90625 -2 21.90625 -2.90625 21.8125 -3.4375 C 21.765625 -4.34375 21.59375 -5 21.25 -5.34375 C 20.984375 -5.6875 20.515625 -5.90625 19.8125 -6 C 19.34375 -6.078125 18.25 -6.125 16.5625 -6.125 L 7 -6.125 C 7.078125 -6.5625 7.125 -6.859375 7.125 -7 C 7.171875 -7.25 7.21875 -7.4375 7.296875 -7.515625 C 7.390625 -7.609375 7.515625 -7.6875 7.640625 -7.6875 L 17.421875 -7.6875 C 18.953125 -7.6875 19.984375 -7.734375 20.546875 -7.828125 C 21.421875 -7.953125 22.03125 -8.21875 22.421875 -8.5625 C 22.765625 -8.90625 23.078125 -9.515625 23.25 -10.34375 C 23.421875 -10.953125 23.59375 -12.078125 23.8125 -13.8125 L 24.078125 -15.421875 C 24.25 -16.8125 24.375 -17.734375 24.421875 -18.25 C 24.46875 -18.59375 24.46875 -18.90625 24.46875 -19.15625 C 24.46875 -20.03125 24.296875 -20.640625 23.859375 -20.9375 C 23.515625 -21.25 22.859375 -21.421875 21.90625 -21.46875 C 21.375 -21.515625 20.34375 -21.515625 18.765625 -21.515625 Z M 9.390625 -15.421875 L 17.859375 -15.421875 C 17.8125 -14.90625 17.765625 -14.59375 17.734375 -14.421875 C 17.734375 -14.25 17.6875 -14.125 17.59375 -14.03125 C 17.515625 -13.953125 17.34375 -13.859375 17.078125 -13.8125 L 8.078125 -13.8125 C 8.171875 -14.34375 8.21875 -14.640625 8.21875 -14.78125 C 8.296875 -14.984375 8.34375 -15.078125 8.390625 -15.171875 C 8.46875 -15.25 8.5625 -15.34375 8.640625 -15.375 C 8.734375 -15.421875 9 -15.421875 9.390625 -15.421875 Z M 9.390625 -15.421875 "/></g></g></g><g fill="#ebe9e7" fill-opacity="1"><g transform="translate(223.617776, 201.372523)"><g><path d="M 2.4375 -15.421875 L 0.78125 -3.65625 C 0.734375 -3.171875 0.6875 -2.875 0.65625 -2.6875 C 0.609375 -2.484375 0.5625 -2.265625 0.484375 -2.078125 C 0.390625 -1.828125 0.171875 -1.5625 -0.171875 -1.21875 C -0.34375 -1 -0.6875 -0.609375 -1.296875 0 L 0.515625 0 C 1.484375 0 2.125 -0.046875 2.515625 -0.046875 C 3.4375 -0.09375 4.125 -0.125 4.5625 -0.21875 C 5.265625 -0.390625 5.734375 -0.65625 6.078125 -1.046875 C 6.34375 -1.390625 6.5625 -1.90625 6.734375 -2.609375 C 6.90625 -3.21875 7.078125 -4.390625 7.296875 -6.125 L 8.34375 -13.640625 C 8.4375 -14.203125 8.515625 -14.5625 8.5625 -14.6875 C 8.640625 -14.953125 8.734375 -15.125 8.828125 -15.203125 C 8.953125 -15.296875 9.171875 -15.375 9.421875 -15.375 C 9.640625 -15.421875 10.078125 -15.421875 10.734375 -15.421875 L 18.125 -15.421875 C 19.9375 -15.421875 21.125 -15.46875 21.6875 -15.515625 C 22.59375 -15.640625 23.25 -15.8125 23.640625 -16.171875 C 24.078125 -16.515625 24.375 -17.125 24.59375 -17.953125 C 24.765625 -18.546875 24.9375 -19.734375 25.203125 -21.546875 L 8.515625 -21.546875 C 7 -21.546875 5.953125 -21.515625 5.34375 -21.375 C 4.6875 -21.296875 4.21875 -21.078125 3.875 -20.734375 C 3.46875 -20.375 3.171875 -19.6875 2.953125 -18.734375 C 2.875 -18.203125 2.6875 -17.078125 2.4375 -15.421875 Z M 2.4375 -15.421875 "/></g></g></g><g fill="#ebe9e7" fill-opacity="1"><g transform="translate(248.554682, 201.372523)"><g><path d="M 10.859375 -30.453125 C 8.78125 -30.453125 7.4375 -30.421875 6.828125 -30.28125 C 6.171875 -30.203125 5.65625 -29.984375 5.296875 -29.640625 C 4.953125 -29.28125 4.65625 -28.71875 4.4375 -27.9375 C 4.296875 -27.375 4.078125 -26.15625 3.828125 -24.328125 L 2.875 -17.25 L 2 -11.25 L 0.875 -3.171875 C 0.828125 -2.828125 0.78125 -2.5625 0.734375 -2.390625 C 0.6875 -2.21875 0.609375 -2.078125 0.515625 -1.90625 C 0.4375 -1.734375 0.21875 -1.484375 -0.09375 -1.171875 C -0.265625 -1 -0.65625 -0.65625 -1.296875 -0.046875 L 0.734375 -0.046875 C 2.65625 -0.046875 3.90625 -0.09375 4.515625 -0.171875 C 5.265625 -0.34375 5.78125 -0.609375 6.125 -0.953125 C 6.46875 -1.34375 6.734375 -1.953125 6.90625 -2.828125 C 7.078125 -3.390625 7.25 -4.46875 7.46875 -6.078125 L 8.734375 -15.125 L 9.953125 -23.8125 Z M 10.859375 -30.453125 "/></g></g></g><g fill="#ebe9e7" fill-opacity="1"><g transform="translate(258.546828, 201.372523)"><g><path d="M 1.21875 -21.59375 C 1.65625 -21.15625 1.90625 -20.859375 2.046875 -20.6875 C 2.296875 -20.421875 2.4375 -20.15625 2.515625 -19.9375 C 2.609375 -19.765625 2.609375 -19.59375 2.609375 -19.34375 C 2.609375 -19.15625 2.609375 -18.859375 2.515625 -18.421875 L 2.078125 -15.46875 L 0.78125 -6.125 C 0.65625 -5.078125 0.5625 -4.296875 0.515625 -3.875 C 0.4375 -3.265625 0.390625 -2.78125 0.390625 -2.390625 C 0.390625 -1.828125 0.484375 -1.390625 0.65625 -1.09375 C 0.90625 -0.609375 1.4375 -0.296875 2.296875 -0.125 C 2.90625 -0.046875 4.046875 0 5.6875 0 L 15.6875 0 C 15.59375 0.78125 15.515625 1.34375 15.421875 1.609375 C 15.375 1.953125 15.25 2.21875 15.078125 2.390625 C 14.953125 2.5625 14.6875 2.65625 14.34375 2.734375 C 14.125 2.734375 13.640625 2.78125 12.859375 2.78125 L 5.34375 2.78125 C 4.046875 2.78125 3.078125 2.78125 2.5625 2.875 C 1.828125 2.90625 1.265625 3.078125 0.828125 3.34375 C 0.296875 3.65625 -0.125 4.296875 -0.484375 5.34375 C -0.65625 5.90625 -0.90625 7.078125 -1.296875 8.90625 L 14.421875 8.90625 C 16.765625 8.90625 18.25 8.828125 18.859375 8.640625 C 19.46875 8.46875 19.90625 8.25 20.15625 7.90625 C 20.515625 7.46875 20.8125 6.828125 20.984375 5.953125 C 21.125 5.390625 21.296875 4.34375 21.46875 2.78125 L 21.859375 0 L 22.71875 -6.125 L 24.03125 -15.46875 C 24.296875 -17.375 24.421875 -18.640625 24.421875 -19.203125 C 24.421875 -19.375 24.421875 -19.546875 24.375 -19.640625 C 24.375 -20.34375 24.15625 -20.8125 23.71875 -21.078125 C 23.375 -21.328125 22.71875 -21.515625 21.8125 -21.546875 C 21.296875 -21.59375 20.296875 -21.59375 18.734375 -21.59375 L 17.859375 -15.46875 L 16.765625 -7.6875 C 16.6875 -7.34375 16.640625 -7.078125 16.59375 -6.90625 C 16.5625 -6.6875 16.46875 -6.515625 16.375 -6.390625 C 16.296875 -6.296875 16.203125 -6.25 16.03125 -6.21875 C 15.90625 -6.171875 15.515625 -6.125 14.90625 -6.125 L 7 -6.125 L 8.296875 -15.46875 C 8.5625 -17.515625 8.734375 -18.734375 8.734375 -19.078125 L 8.734375 -19.59375 C 8.734375 -20.203125 8.640625 -20.6875 8.390625 -20.9375 C 8.171875 -21.203125 7.78125 -21.375 7.21875 -21.46875 C 6.78125 -21.546875 6.046875 -21.59375 4.953125 -21.59375 Z M 1.21875 -21.59375 "/></g></g></g><g fill="#ebe9e7" fill-opacity="1"><g transform="translate(283.353395, 201.372523)"><g><path d="M 2.609375 -15.375 L 2.390625 -13.8125 L 1.515625 -7.6875 L 1.296875 -6.078125 L 0.875 -3.046875 C 0.828125 -2.609375 0.78125 -2.296875 0.6875 -2.125 C 0.65625 -1.953125 0.5625 -1.828125 0.484375 -1.65625 C 0.34375 -1.484375 0.125 -1.265625 -0.21875 -0.953125 C -0.390625 -0.78125 -0.734375 -0.484375 -1.296875 0 L 0.6875 0 C 2.390625 0 3.515625 -0.046875 4.125 -0.09375 C 5.078125 -0.21875 5.734375 -0.484375 6.125 -0.90625 C 6.46875 -1.34375 6.78125 -2 6.953125 -2.90625 C 7.078125 -3.46875 7.25 -4.515625 7.46875 -6.078125 L 7.6875 -7.6875 L 8.5625 -13.8125 C 8.640625 -14.296875 8.6875 -14.59375 8.6875 -14.734375 C 8.78125 -14.984375 8.90625 -15.171875 9 -15.25 C 9.078125 -15.34375 9.25 -15.375 9.421875 -15.375 C 9.515625 -15.421875 9.640625 -15.421875 9.828125 -15.421875 C 10 -15.421875 10.171875 -15.421875 10.390625 -15.375 L 18.34375 -15.375 L 18.125 -13.8125 L 17.25 -7.6875 L 17.03125 -6.078125 L 16.171875 0 C 18.34375 0 19.734375 -0.09375 20.34375 -0.171875 C 21.078125 -0.34375 21.59375 -0.609375 21.9375 -1 C 22.203125 -1.34375 22.421875 -1.828125 22.59375 -2.515625 C 22.765625 -3.078125 22.9375 -4.265625 23.203125 -6.078125 L 23.421875 -7.6875 L 24.296875 -13.8125 L 24.5 -15.375 C 24.765625 -17.296875 24.90625 -18.546875 24.90625 -19.125 C 24.90625 -20.078125 24.6875 -20.6875 24.25 -20.984375 C 23.90625 -21.25 23.25 -21.421875 22.328125 -21.46875 C 21.90625 -21.515625 21.296875 -21.515625 20.515625 -21.515625 L 8.296875 -21.515625 C 7.046875 -21.515625 6.125 -21.46875 5.5625 -21.375 C 4.78125 -21.296875 4.171875 -20.984375 3.828125 -20.515625 C 3.515625 -20.15625 3.265625 -19.515625 3.078125 -18.640625 C 3 -18.125 2.828125 -17.03125 2.609375 -15.375 Z M 2.609375 -15.375 "/></g></g></g><path stroke-linecap="butt" transform="matrix(0.463908, 0, 0, 0.463908, 146.414116, 204.313741)" fill="none" stroke-linejoin="miter" d="M 45.317988 8.83865 L 28.805762 8.83865 L 28.805762 9.562796 C 28.805762 10.682697 28.847863 11.524728 28.847863 12.046788 C 28.932066 12.981442 29.100473 13.612965 29.361502 14.000299 C 29.664633 14.387634 30.169852 14.640243 30.92768 14.774968 C 31.449739 14.817069 32.510698 14.859171 34.043194 14.859171 L 43.440259 14.859171 C 43.389737 15.322288 43.347636 15.625419 43.305534 15.793825 C 43.305534 15.962231 43.263433 16.096956 43.17923 16.181159 C 43.095027 16.265362 42.960302 16.349566 42.791895 16.391667 C 42.707692 16.391667 42.446663 16.425348 42.118271 16.425348 L 33.201163 16.425348 C 31.618145 16.425348 30.506664 16.484291 29.908822 16.568494 C 29.184676 16.644276 28.628935 16.905306 28.241601 17.28422 C 27.913209 17.629453 27.610078 18.311498 27.39115 19.338775 C 27.306947 19.843994 27.13854 20.862851 26.919612 22.403768 L 26.675423 23.978366 C 26.456495 25.687689 26.330191 26.841271 26.288089 27.439113 L 26.288089 27.700142 C 26.288089 28.373767 26.372292 28.845305 26.633322 29.190537 C 26.877511 29.493668 27.306947 29.695756 27.913209 29.830481 C 28.502631 29.914684 29.824619 29.998887 31.879175 29.998887 L 41.124674 29.998887 C 43.263433 29.998887 44.627523 29.914684 45.233785 29.830481 C 45.823207 29.695756 46.294744 29.52735 46.639977 29.27474 C 47.018891 28.98003 47.313602 28.508492 47.490428 27.91065 C 47.700936 27.312808 47.961965 26.032921 48.206154 23.978366 L 48.812417 19.633486 L 49.494462 14.859171 C 49.71339 13.318254 49.831274 12.290976 49.831274 11.785758 C 49.873376 11.524728 49.873376 11.356322 49.873376 11.187916 C 49.873376 10.295363 49.671288 9.689101 49.241852 9.40281 C 48.980823 9.183882 48.551387 9.057578 47.961965 8.973375 C 47.448326 8.880751 46.555774 8.83865 45.317988 8.83865 Z M 33.958991 22.403768 L 42.37088 22.403768 C 42.328778 22.875305 42.286677 23.178436 42.244575 23.346843 C 42.202474 23.515249 42.160372 23.692075 42.067749 23.767858 C 42.025647 23.852061 41.941444 23.894163 41.773038 23.936264 C 41.688835 23.936264 41.427805 23.978366 41.082573 23.978366 L 32.721206 23.978366 C 32.813829 23.649974 32.85593 23.388944 32.85593 23.26264 C 32.898032 22.917407 32.940134 22.706899 33.024337 22.614276 C 33.10854 22.530073 33.201163 22.44587 33.327468 22.44587 C 33.411671 22.403768 33.622179 22.403768 33.958991 22.403768 Z M 60.920821 0.14047 C 58.916788 0.14047 57.603219 0.182572 56.996957 0.266775 C 56.323332 0.350978 55.759172 0.612008 55.422359 0.94882 C 55.077127 1.285632 54.782416 1.933996 54.571908 2.86865 C 54.437183 3.382289 54.268777 4.49377 54.007747 6.110469 L 53.881443 7.264052 L 59.944065 7.264052 Z M 53.670935 8.83865 L 52.214222 19.170369 L 50.681725 29.998887 C 52.820484 29.998887 54.184574 29.914684 54.782416 29.788379 C 55.590766 29.611553 56.146506 29.27474 56.483318 28.761101 C 56.744348 28.373767 56.954856 27.826447 57.08116 27.051779 C 57.215885 26.504459 57.384291 25.477181 57.603219 24.028888 L 58.495772 17.461046 L 59.725137 8.83865 Z M 92.320155 8.83865 L 75.816348 8.83865 L 75.816348 9.562796 C 75.816348 10.682697 75.85845 11.524728 75.85845 12.046788 C 75.942653 12.981442 76.102639 13.612965 76.363669 14.000299 C 76.6668 14.387634 77.180439 14.640243 77.938266 14.774968 C 78.460326 14.817069 79.521285 14.859171 81.053781 14.859171 L 90.450846 14.859171 C 90.391904 15.322288 90.349802 15.625419 90.307701 15.793825 C 90.307701 15.962231 90.27402 16.096956 90.189816 16.181159 C 90.105613 16.265362 89.970888 16.349566 89.802482 16.391667 C 89.718279 16.391667 89.45725 16.425348 89.120437 16.425348 L 80.21175 16.425348 C 78.628732 16.425348 77.508831 16.484291 76.919409 16.568494 C 76.186842 16.644276 75.639522 16.905306 75.252188 17.28422 C 74.915375 17.629453 74.612244 18.311498 74.393316 19.338775 C 74.317533 19.843994 74.149127 20.862851 73.930199 22.403768 L 73.67759 23.978366 C 73.458662 25.687689 73.332357 26.841271 73.290256 27.439113 L 73.290256 27.700142 C 73.290256 28.373767 73.374459 28.845305 73.635488 29.190537 C 73.888098 29.493668 74.317533 29.695756 74.915375 29.830481 C 75.513217 29.914684 76.835206 29.998887 78.889761 29.998887 L 88.135261 29.998887 C 90.27402 29.998887 91.63811 29.914684 92.235952 29.830481 C 92.833794 29.695756 93.296911 29.52735 93.642143 29.27474 C 94.029477 28.98003 94.324188 28.508492 94.501015 27.91065 C 94.703102 27.312808 94.964132 26.032921 95.216741 23.978366 L 95.823003 19.633486 L 96.496628 14.859171 C 96.715556 13.318254 96.841861 12.290976 96.841861 11.785758 C 96.883962 11.524728 96.883962 11.356322 96.883962 11.187916 C 96.883962 10.295363 96.673455 9.689101 96.252439 9.40281 C 95.99141 9.183882 95.561974 9.057578 94.964132 8.973375 C 94.458913 8.880751 93.55794 8.83865 92.320155 8.83865 Z M 80.969578 22.403768 L 89.373046 22.403768 C 89.330945 22.875305 89.288843 23.178436 89.246742 23.346843 C 89.20464 23.515249 89.162539 23.692075 89.069915 23.767858 C 89.027814 23.852061 88.943611 23.894163 88.783625 23.936264 C 88.699422 23.936264 88.438392 23.978366 88.093159 23.978366 L 79.731792 23.978366 C 79.824416 23.649974 79.866517 23.388944 79.866517 23.26264 C 79.908619 22.917407 79.95072 22.706899 80.034923 22.614276 C 80.119127 22.530073 80.21175 22.44587 80.338055 22.44587 C 80.413837 22.403768 80.624345 22.403768 80.969578 22.403768 Z M 99.317432 14.901272 C 99.317432 14.943374 99.140605 16.391667 98.711169 19.296674 C 98.626966 19.801892 98.542763 20.576561 98.365937 21.63752 C 98.248052 22.656377 98.121748 23.473147 98.037545 24.028888 C 97.860718 25.392978 97.776515 26.336052 97.692312 26.841271 C 97.692312 27.144402 97.65021 27.439113 97.65021 27.700142 C 97.65021 28.247463 97.734414 28.676898 97.90282 28.98003 C 98.163849 29.451567 98.711169 29.737857 99.570041 29.914684 C 100.167883 29.956785 101.237262 29.998887 102.862382 29.998887 L 112.672042 29.998887 C 112.579419 30.857758 112.495216 31.405079 112.411013 31.666108 C 112.32681 32.011341 112.242606 32.26395 112.06578 32.423936 C 111.939475 32.558661 111.728968 32.642864 111.434257 32.727067 C 111.173227 32.727067 110.659588 32.769169 109.88492 32.769169 L 102.517149 32.769169 C 101.237262 32.769169 100.294188 32.769169 99.746867 32.853372 C 99.014301 32.945995 98.46698 33.0723 98.079646 33.324909 C 97.566007 33.62804 97.144992 34.267984 96.841861 35.211058 C 96.673455 35.758378 96.370323 36.954062 95.982989 38.78969 L 111.434257 38.78969 C 113.471972 38.78969 114.79396 38.705487 115.400222 38.612863 C 116.166471 38.486559 116.680109 38.24237 117.016922 37.855036 C 117.395836 37.4256 117.698967 36.777236 117.867373 35.884683 C 118.002098 35.286841 118.170504 34.267984 118.33891 32.769169 L 118.717824 29.998887 L 119.576696 24.028888 L 120.081914 20.231328 L 120.856583 14.901272 C 120.982888 13.798212 121.075511 13.023543 121.075511 12.594108 L 121.075511 10.884785 C 121.024989 10.253262 120.856583 9.823826 120.51135 9.562796 C 120.342944 9.360709 120.039813 9.225984 119.660899 9.141781 C 119.40829 9.057578 119.020955 8.973375 118.557838 8.973375 C 118.086301 8.880751 117.109545 8.880751 115.61073 8.880751 L 106.222085 8.880751 C 104.512763 8.880751 103.3676 8.880751 102.761338 8.973375 C 101.826684 9.057578 101.195161 9.301767 100.765725 9.689101 C 100.420492 10.034334 100.117361 10.682697 99.873172 11.57525 C 99.788969 12.088889 99.570041 13.19195 99.317432 14.901272 Z M 106.912551 14.901272 L 114.79396 14.901272 L 113.733001 22.487971 C 113.648798 22.959508 113.606697 23.304741 113.522493 23.473147 C 113.471972 23.649974 113.42987 23.734177 113.303565 23.80996 C 113.219362 23.894163 113.050956 23.936264 112.840448 23.978366 C 112.672042 23.978366 112.368911 24.028888 111.897374 24.028888 L 104.125428 24.028888 L 104.647487 20.105024 L 105.161126 16.484291 C 105.245329 16.054855 105.287431 15.793825 105.287431 15.667521 C 105.371634 15.406491 105.413736 15.238085 105.506359 15.162302 C 105.590562 15.019157 105.750548 14.943374 105.918954 14.943374 C 106.095781 14.901272 106.398912 14.901272 106.912551 14.901272 Z M 130.632562 8.83865 C 128.66221 8.83865 127.382323 8.880751 126.784481 8.973375 C 126.018232 9.057578 125.42039 9.301767 124.990955 9.689101 C 124.612041 10.034334 124.30891 10.766901 124.098402 11.785758 C 124.014199 12.290976 123.837372 13.276153 123.584763 14.817069 L 122.304876 23.936264 C 122.085948 25.645587 121.959643 26.757068 121.917542 27.35491 L 121.917542 27.658041 C 121.917542 28.247463 122.001745 28.676898 122.178571 28.98003 C 122.431181 29.367364 122.860616 29.611553 123.450038 29.788379 C 124.0563 29.872582 125.159361 29.956785 126.868684 29.956785 L 142.993576 29.956785 L 142.993576 29.27474 C 142.993576 27.986433 142.993576 27.144402 142.909373 26.622343 C 142.867271 25.687689 142.698865 25.098267 142.353632 24.753034 C 142.092603 24.407802 141.629486 24.197294 140.947441 24.113091 C 140.484324 24.028888 139.406524 23.978366 137.756144 23.978366 L 128.359078 23.978366 C 128.451702 23.515249 128.493803 23.220538 128.493803 23.085813 C 128.535905 22.833204 128.578006 22.656377 128.66221 22.572174 C 128.746413 22.487971 128.881138 22.44587 129.007442 22.44587 C 129.125327 22.403768 129.344255 22.403768 129.638965 22.403768 L 138.598175 22.403768 C 140.09699 22.403768 141.115847 22.361666 141.671587 22.285884 C 142.522039 22.18484 143.128301 21.940651 143.515635 21.595418 C 143.844027 21.208084 144.147158 20.618662 144.315565 19.801892 C 144.492391 19.254572 144.660797 18.134671 144.879725 16.425348 L 145.123914 14.817069 C 145.300741 13.452979 145.427045 12.552006 145.469147 12.088889 C 145.511248 11.701555 145.511248 11.398424 145.511248 11.145814 C 145.511248 10.295363 145.342842 9.689101 144.921827 9.40281 C 144.576594 9.141781 143.92823 8.973375 142.993576 8.880751 C 142.479937 8.83865 141.46108 8.83865 139.920163 8.83865 Z M 130.708345 14.859171 L 139.01919 14.859171 C 138.985509 15.322288 138.943407 15.667521 138.901306 15.835927 C 138.901306 16.012753 138.859204 16.096956 138.775001 16.181159 C 138.690798 16.265362 138.513971 16.349566 138.261362 16.391667 L 129.428458 16.391667 C 129.512661 15.878028 129.554762 15.583317 129.554762 15.448592 C 129.638965 15.280186 129.681067 15.162302 129.731589 15.061258 C 129.815792 14.985475 129.899995 14.901272 129.984198 14.901272 C 130.068401 14.859171 130.329431 14.859171 130.708345 14.859171 Z M 148.458357 14.901272 L 148.239429 16.425348 L 147.380557 22.44587 L 147.17847 24.028888 L 146.319598 29.998887 C 148.155226 29.998887 149.350909 29.956785 149.90665 29.914684 C 150.672898 29.788379 151.27074 29.569451 151.607552 29.308422 C 152.036988 28.98003 152.382221 28.466391 152.550627 27.742244 C 152.719033 27.144402 152.980063 25.906617 153.232672 24.028888 L 153.44318 22.44587 L 154.302051 16.425348 C 154.386254 15.962231 154.419936 15.667521 154.419936 15.532796 C 154.504139 15.280186 154.638864 15.10336 154.723067 15.019157 C 154.849371 14.943374 154.975676 14.901272 155.152503 14.901272 C 155.236706 14.859171 155.36301 14.859171 155.497735 14.859171 C 155.666141 14.859171 155.868229 14.859171 156.087157 14.901272 L 163.901204 14.901272 L 163.682276 16.425348 L 162.831825 22.44587 L 162.621317 24.028888 L 161.762445 29.998887 C 163.850682 29.998887 165.214772 29.914684 165.821034 29.830481 C 166.536761 29.653654 167.05882 29.409465 167.387212 29.022131 C 167.732445 28.676898 167.951373 28.121158 168.119779 27.439113 C 168.288185 26.883372 168.465012 25.72979 168.675519 24.028888 L 168.894447 22.44587 L 169.744899 16.425348 L 169.955406 14.901272 C 170.216436 13.023543 170.33432 11.785758 170.33432 11.230018 L 170.33432 10.926886 C 170.292219 10.20274 170.081711 9.689101 169.744899 9.444912 C 169.483869 9.183882 169.054433 9.057578 168.507113 8.973375 C 167.993474 8.880751 167.185125 8.880751 166.023122 8.880751 L 154.041022 8.880751 C 152.937961 8.880751 152.121191 8.880751 151.607552 8.973375 C 150.925507 9.057578 150.411868 9.225984 150.066636 9.478593 C 149.64562 9.773304 149.308808 10.337465 149.047778 11.145814 C 148.921474 11.701555 148.702546 12.93934 148.458357 14.901272 Z M 179.167225 8.880751 C 177.634728 8.880751 176.565349 8.880751 175.967507 8.973375 C 175.201259 9.057578 174.645519 9.301767 174.258184 9.646999 C 173.87927 9.992232 173.576139 10.632176 173.365632 11.524728 C 173.281428 12.046788 173.104602 13.149848 172.851993 14.859171 C 172.809891 15.204404 172.633065 16.484291 172.304673 18.783035 C 171.95944 21.039678 171.740512 22.791102 171.572106 23.978366 C 171.311076 25.687689 171.184771 26.799169 171.14267 27.397011 L 171.14267 27.700142 C 171.14267 28.289564 171.268975 28.761101 171.445801 29.064233 C 171.69841 29.409465 172.127846 29.653654 172.725688 29.830481 C 173.32353 29.914684 174.645519 29.998887 176.691654 29.998887 L 186.248705 29.998887 C 188.000129 29.998887 189.145291 29.956785 189.709452 29.914684 C 190.559903 29.830481 191.199847 29.611553 191.578761 29.308422 C 192.008196 28.98003 192.311327 28.373767 192.479734 27.615939 C 192.63972 27.009677 192.816546 25.822414 193.069155 23.978366 L 177.634728 23.978366 L 178.695687 16.425348 C 178.77989 16.012753 178.821992 15.709622 178.821992 15.583317 C 178.906195 15.322288 178.998819 15.162302 179.083022 15.061258 C 179.167225 14.985475 179.293529 14.943374 179.470356 14.943374 C 179.638762 14.859171 180.059777 14.859171 180.657619 14.859171 L 188.30326 14.859171 C 189.911539 14.859171 190.989339 14.817069 191.536659 14.817069 C 192.563937 14.732866 193.330185 14.471837 193.759621 14.084502 C 194.146955 13.73927 194.433245 13.149848 194.610072 12.333078 C 194.778478 11.743656 194.955305 10.590074 195.207914 8.880751 Z M 197.851891 8.83865 L 197.00144 14.817069 L 195.721553 24.028888 C 195.502625 25.645587 195.37632 26.757068 195.37632 27.312808 C 195.37632 27.397011 195.334219 27.523316 195.334219 27.658041 C 195.334219 28.331666 195.460523 28.803203 195.679451 29.148436 C 195.92364 29.493668 196.479381 29.737857 197.254049 29.872582 C 197.801369 29.956785 198.91285 29.998887 200.53797 29.998887 L 210.35605 29.998887 C 210.255007 30.689352 210.212905 31.152469 210.137122 31.405079 C 210.095021 31.750311 210.010818 32.011341 209.926615 32.221849 C 209.79189 32.423936 209.53928 32.600763 209.194048 32.684966 C 208.933018 32.727067 208.427799 32.769169 207.568928 32.769169 L 200.201157 32.769169 C 198.91285 32.769169 198.020297 32.769169 197.506658 32.853372 C 196.614106 32.945995 195.92364 33.156503 195.502625 33.501736 C 195.073189 33.846968 194.685855 34.520593 194.399564 35.497349 C 194.264839 36.019408 194.01223 37.122469 193.666997 38.78969 L 209.109845 38.78969 C 210.861269 38.78969 212.006431 38.747588 212.570592 38.705487 C 213.589449 38.570762 214.271494 38.318153 214.650408 37.897137 C 214.995641 37.509803 215.298772 36.911961 215.467178 36.145713 C 215.644005 35.53945 215.812411 34.43639 216.014498 32.769169 L 216.401832 29.998887 L 217.260704 24.028888 L 218.540591 14.817069 C 218.708997 13.697168 218.801621 12.93934 218.843722 12.509905 C 218.927925 11.954164 218.927925 11.524728 218.927925 11.187916 C 218.927925 10.632176 218.885824 10.20274 218.708997 9.908029 C 218.498489 9.40281 217.900647 9.057578 216.965993 8.931273 C 216.401832 8.83865 215.214569 8.83865 213.328419 8.83865 L 212.477968 14.817069 L 211.417009 22.487971 C 211.374908 22.791102 211.332806 23.00161 211.290705 23.178436 C 211.248603 23.346843 211.206502 23.473147 211.15598 23.565771 C 211.071777 23.734177 210.945472 23.852061 210.734964 23.936264 C 210.600239 23.978366 210.212905 24.028888 209.581382 24.028888 L 201.809436 24.028888 L 203.089323 14.817069 C 203.350353 12.846717 203.476658 11.701555 203.476658 11.272119 L 203.476658 11.011089 C 203.476658 10.253262 203.350353 9.731202 203.013541 9.478593 C 202.668308 9.099679 201.859958 8.880751 200.622173 8.83865 Z M 197.851891 8.83865 " stroke="#000000" stroke-width="11.200008" stroke-opacity="1" stroke-miterlimit="4"/><g fill="#ebe9e7" fill-opacity="1"><g transform="translate(158.410491, 218.230985)"><g><path d="M 9.03125 -9.8125 L 1.359375 -9.8125 L 1.359375 -9.484375 C 1.359375 -8.96875 1.390625 -8.578125 1.390625 -8.328125 C 1.421875 -7.90625 1.5 -7.609375 1.625 -7.421875 C 1.765625 -7.25 2 -7.125 2.359375 -7.0625 C 2.59375 -7.046875 3.09375 -7.03125 3.796875 -7.03125 L 8.15625 -7.03125 C 8.140625 -6.8125 8.109375 -6.671875 8.09375 -6.59375 C 8.09375 -6.515625 8.078125 -6.453125 8.03125 -6.421875 C 8 -6.375 7.9375 -6.328125 7.859375 -6.3125 C 7.8125 -6.3125 7.703125 -6.296875 7.546875 -6.296875 L 3.40625 -6.296875 C 2.671875 -6.296875 2.15625 -6.28125 1.875 -6.234375 C 1.546875 -6.203125 1.28125 -6.078125 1.109375 -5.90625 C 0.953125 -5.734375 0.8125 -5.421875 0.71875 -4.953125 C 0.671875 -4.71875 0.59375 -4.234375 0.5 -3.53125 L 0.375 -2.796875 C 0.28125 -2 0.21875 -1.46875 0.203125 -1.1875 L 0.203125 -1.0625 C 0.203125 -0.75 0.234375 -0.53125 0.359375 -0.375 C 0.46875 -0.234375 0.671875 -0.140625 0.953125 -0.078125 C 1.234375 -0.046875 1.84375 0 2.796875 0 L 7.09375 0 C 8.078125 0 8.703125 -0.046875 8.984375 -0.078125 C 9.265625 -0.140625 9.484375 -0.21875 9.640625 -0.34375 C 9.8125 -0.46875 9.953125 -0.6875 10.03125 -0.96875 C 10.140625 -1.25 10.25 -1.84375 10.375 -2.796875 L 10.65625 -4.8125 L 10.96875 -7.03125 C 11.0625 -7.734375 11.125 -8.21875 11.125 -8.453125 C 11.140625 -8.578125 11.140625 -8.65625 11.140625 -8.734375 C 11.140625 -9.140625 11.046875 -9.421875 10.84375 -9.5625 C 10.734375 -9.65625 10.53125 -9.71875 10.25 -9.765625 C 10.015625 -9.796875 9.59375 -9.8125 9.03125 -9.8125 Z M 3.765625 -3.53125 L 7.65625 -3.53125 C 7.640625 -3.3125 7.625 -3.171875 7.609375 -3.09375 C 7.578125 -3.015625 7.5625 -2.9375 7.515625 -2.890625 C 7.5 -2.84375 7.46875 -2.828125 7.390625 -2.8125 C 7.34375 -2.8125 7.21875 -2.796875 7.0625 -2.796875 L 3.1875 -2.796875 C 3.234375 -2.953125 3.25 -3.0625 3.25 -3.125 C 3.265625 -3.28125 3.28125 -3.390625 3.328125 -3.421875 C 3.359375 -3.46875 3.40625 -3.5 3.46875 -3.5 C 3.5 -3.53125 3.609375 -3.53125 3.765625 -3.53125 Z M 3.765625 -3.53125 "/></g></g></g><g fill="#ebe9e7" fill-opacity="1"><g transform="translate(169.729542, 218.230985)"><g><path d="M 4.953125 -13.859375 C 4.015625 -13.859375 3.40625 -13.84375 3.125 -13.796875 C 2.8125 -13.765625 2.546875 -13.640625 2.390625 -13.484375 C 2.234375 -13.328125 2.09375 -13.03125 2 -12.59375 C 1.9375 -12.359375 1.859375 -11.84375 1.734375 -11.09375 L 1.6875 -10.546875 L 4.5 -10.546875 Z M 1.578125 -9.8125 L 0.90625 -5.03125 L 0.203125 0 C 1.1875 0 1.828125 -0.046875 2.09375 -0.09375 C 2.46875 -0.171875 2.734375 -0.34375 2.890625 -0.578125 C 3.015625 -0.75 3.109375 -1.015625 3.171875 -1.359375 C 3.234375 -1.625 3.3125 -2.09375 3.40625 -2.765625 L 3.828125 -5.8125 L 4.390625 -9.8125 Z M 1.578125 -9.8125 "/></g></g></g><g fill="#ebe9e7" fill-opacity="1"><g transform="translate(174.280912, 218.230985)"><g/></g></g><g fill="#ebe9e7" fill-opacity="1"><g transform="translate(180.217479, 218.230985)"><g><path d="M 9.03125 -9.8125 L 1.359375 -9.8125 L 1.359375 -9.484375 C 1.359375 -8.96875 1.390625 -8.578125 1.390625 -8.328125 C 1.421875 -7.90625 1.5 -7.609375 1.625 -7.421875 C 1.765625 -7.25 2 -7.125 2.359375 -7.0625 C 2.59375 -7.046875 3.09375 -7.03125 3.796875 -7.03125 L 8.15625 -7.03125 C 8.140625 -6.8125 8.109375 -6.671875 8.09375 -6.59375 C 8.09375 -6.515625 8.078125 -6.453125 8.03125 -6.421875 C 8 -6.375 7.9375 -6.328125 7.859375 -6.3125 C 7.8125 -6.3125 7.703125 -6.296875 7.546875 -6.296875 L 3.40625 -6.296875 C 2.671875 -6.296875 2.15625 -6.28125 1.875 -6.234375 C 1.546875 -6.203125 1.28125 -6.078125 1.109375 -5.90625 C 0.953125 -5.734375 0.8125 -5.421875 0.71875 -4.953125 C 0.671875 -4.71875 0.59375 -4.234375 0.5 -3.53125 L 0.375 -2.796875 C 0.28125 -2 0.21875 -1.46875 0.203125 -1.1875 L 0.203125 -1.0625 C 0.203125 -0.75 0.234375 -0.53125 0.359375 -0.375 C 0.46875 -0.234375 0.671875 -0.140625 0.953125 -0.078125 C 1.234375 -0.046875 1.84375 0 2.796875 0 L 7.09375 0 C 8.078125 0 8.703125 -0.046875 8.984375 -0.078125 C 9.265625 -0.140625 9.484375 -0.21875 9.640625 -0.34375 C 9.8125 -0.46875 9.953125 -0.6875 10.03125 -0.96875 C 10.140625 -1.25 10.25 -1.84375 10.375 -2.796875 L 10.65625 -4.8125 L 10.96875 -7.03125 C 11.0625 -7.734375 11.125 -8.21875 11.125 -8.453125 C 11.140625 -8.578125 11.140625 -8.65625 11.140625 -8.734375 C 11.140625 -9.140625 11.046875 -9.421875 10.84375 -9.5625 C 10.734375 -9.65625 10.53125 -9.71875 10.25 -9.765625 C 10.015625 -9.796875 9.59375 -9.8125 9.03125 -9.8125 Z M 3.765625 -3.53125 L 7.65625 -3.53125 C 7.640625 -3.3125 7.625 -3.171875 7.609375 -3.09375 C 7.578125 -3.015625 7.5625 -2.9375 7.515625 -2.890625 C 7.5 -2.84375 7.46875 -2.828125 7.390625 -2.8125 C 7.34375 -2.8125 7.21875 -2.796875 7.0625 -2.796875 L 3.1875 -2.796875 C 3.234375 -2.953125 3.25 -3.0625 3.25 -3.125 C 3.265625 -3.28125 3.28125 -3.390625 3.328125 -3.421875 C 3.359375 -3.46875 3.40625 -3.5 3.46875 -3.5 C 3.5 -3.53125 3.609375 -3.53125 3.765625 -3.53125 Z M 3.765625 -3.53125 "/></g></g></g><g fill="#ebe9e7" fill-opacity="1"><g transform="translate(191.536531, 218.230985)"><g><path d="M 0.953125 -7.015625 C 0.953125 -6.984375 0.875 -6.3125 0.671875 -4.96875 C 0.640625 -4.734375 0.59375 -4.375 0.515625 -3.875 C 0.453125 -3.40625 0.390625 -3.03125 0.359375 -2.765625 C 0.28125 -2.140625 0.234375 -1.703125 0.203125 -1.46875 C 0.203125 -1.328125 0.171875 -1.1875 0.171875 -1.0625 C 0.171875 -0.8125 0.21875 -0.609375 0.296875 -0.46875 C 0.421875 -0.25 0.671875 -0.125 1.0625 -0.046875 C 1.34375 -0.015625 1.84375 0 2.59375 0 L 7.140625 0 C 7.109375 0.390625 7.0625 0.65625 7.03125 0.765625 C 6.984375 0.9375 6.953125 1.046875 6.875 1.125 C 6.8125 1.1875 6.71875 1.234375 6.578125 1.265625 C 6.453125 1.265625 6.21875 1.28125 5.859375 1.28125 L 2.4375 1.28125 C 1.84375 1.28125 1.40625 1.28125 1.140625 1.328125 C 0.8125 1.359375 0.546875 1.421875 0.375 1.546875 C 0.140625 1.6875 -0.0625 1.984375 -0.203125 2.421875 C -0.28125 2.671875 -0.421875 3.234375 -0.59375 4.078125 L 6.578125 4.078125 C 7.515625 4.078125 8.140625 4.03125 8.40625 4 C 8.765625 3.9375 9 3.828125 9.171875 3.640625 C 9.34375 3.4375 9.484375 3.140625 9.5625 2.734375 C 9.625 2.453125 9.703125 1.984375 9.78125 1.28125 L 9.953125 0 L 10.359375 -2.765625 L 10.59375 -4.53125 L 10.953125 -7.015625 C 11 -7.515625 11.046875 -7.875 11.046875 -8.078125 L 11.046875 -8.875 C 11.03125 -9.171875 10.953125 -9.359375 10.796875 -9.484375 C 10.703125 -9.578125 10.578125 -9.640625 10.390625 -9.6875 C 10.28125 -9.71875 10.09375 -9.765625 9.875 -9.765625 C 9.65625 -9.796875 9.203125 -9.796875 8.515625 -9.796875 L 4.15625 -9.796875 C 3.359375 -9.796875 2.828125 -9.796875 2.546875 -9.765625 C 2.125 -9.71875 1.828125 -9.59375 1.625 -9.421875 C 1.46875 -9.265625 1.328125 -8.96875 1.203125 -8.546875 C 1.171875 -8.3125 1.0625 -7.796875 0.953125 -7.015625 Z M 4.46875 -7.015625 L 8.140625 -7.015625 L 7.640625 -3.484375 C 7.609375 -3.265625 7.578125 -3.109375 7.546875 -3.03125 C 7.515625 -2.953125 7.5 -2.90625 7.4375 -2.875 C 7.40625 -2.828125 7.328125 -2.8125 7.21875 -2.796875 C 7.140625 -2.796875 7.015625 -2.765625 6.796875 -2.765625 L 3.1875 -2.765625 L 3.421875 -4.59375 L 3.65625 -6.28125 C 3.703125 -6.46875 3.71875 -6.59375 3.71875 -6.65625 C 3.765625 -6.765625 3.78125 -6.84375 3.828125 -6.890625 C 3.859375 -6.953125 3.9375 -6.984375 4.015625 -6.984375 C 4.09375 -7.015625 4.234375 -7.015625 4.46875 -7.015625 Z M 4.46875 -7.015625 "/></g></g></g><g fill="#ebe9e7" fill-opacity="1"><g transform="translate(202.776428, 218.230985)"><g><path d="M 4.234375 -9.8125 C 3.328125 -9.8125 2.734375 -9.796875 2.453125 -9.765625 C 2.09375 -9.71875 1.828125 -9.59375 1.625 -9.421875 C 1.4375 -9.265625 1.3125 -8.921875 1.203125 -8.453125 C 1.171875 -8.21875 1.09375 -7.765625 0.96875 -7.046875 L 0.375 -2.8125 C 0.28125 -2.015625 0.21875 -1.5 0.203125 -1.234375 L 0.203125 -1.09375 C 0.203125 -0.8125 0.234375 -0.609375 0.3125 -0.46875 C 0.4375 -0.296875 0.640625 -0.171875 0.90625 -0.09375 C 1.1875 -0.0625 1.703125 -0.015625 2.5 -0.015625 L 9.984375 -0.015625 L 9.984375 -0.34375 C 9.984375 -0.9375 9.984375 -1.328125 9.9375 -1.5625 C 9.921875 -2 9.84375 -2.28125 9.6875 -2.4375 C 9.5625 -2.59375 9.34375 -2.6875 9.03125 -2.734375 C 8.8125 -2.765625 8.3125 -2.796875 7.546875 -2.796875 L 3.1875 -2.796875 C 3.234375 -3.015625 3.25 -3.140625 3.25 -3.203125 C 3.265625 -3.328125 3.28125 -3.40625 3.328125 -3.4375 C 3.359375 -3.484375 3.421875 -3.5 3.484375 -3.5 C 3.546875 -3.53125 3.640625 -3.53125 3.78125 -3.53125 L 7.9375 -3.53125 C 8.625 -3.53125 9.109375 -3.546875 9.359375 -3.578125 C 9.765625 -3.625 10.03125 -3.734375 10.21875 -3.90625 C 10.375 -4.078125 10.515625 -4.359375 10.59375 -4.734375 C 10.671875 -4.984375 10.75 -5.5 10.84375 -6.296875 L 10.96875 -7.046875 C 11.046875 -7.6875 11.109375 -8.09375 11.125 -8.3125 C 11.140625 -8.5 11.140625 -8.625 11.140625 -8.75 C 11.140625 -9.140625 11.0625 -9.421875 10.875 -9.5625 C 10.703125 -9.6875 10.40625 -9.765625 9.984375 -9.796875 C 9.734375 -9.8125 9.265625 -9.8125 8.546875 -9.8125 Z M 4.28125 -7.03125 L 8.140625 -7.03125 C 8.109375 -6.8125 8.09375 -6.65625 8.078125 -6.578125 C 8.078125 -6.5 8.0625 -6.453125 8.015625 -6.421875 C 7.984375 -6.375 7.90625 -6.328125 7.78125 -6.3125 L 3.6875 -6.3125 C 3.71875 -6.546875 3.734375 -6.6875 3.734375 -6.75 C 3.78125 -6.828125 3.796875 -6.890625 3.828125 -6.921875 C 3.859375 -6.96875 3.90625 -7.015625 3.9375 -7.015625 C 3.984375 -7.03125 4.09375 -7.03125 4.28125 -7.03125 Z M 4.28125 -7.03125 "/></g></g></g><g fill="#ebe9e7" fill-opacity="1"><g transform="translate(214.09548, 218.230985)"><g><path d="M 1.1875 -7.015625 L 1.09375 -6.296875 L 0.6875 -3.5 L 0.59375 -2.765625 L 0.203125 0 C 1.046875 0 1.609375 -0.015625 1.859375 -0.046875 C 2.21875 -0.09375 2.5 -0.203125 2.65625 -0.3125 C 2.84375 -0.46875 3.015625 -0.71875 3.09375 -1.046875 C 3.171875 -1.328125 3.28125 -1.90625 3.40625 -2.765625 L 3.5 -3.5 L 3.90625 -6.296875 C 3.9375 -6.515625 3.953125 -6.65625 3.953125 -6.71875 C 4 -6.828125 4.0625 -6.90625 4.09375 -6.953125 C 4.15625 -6.984375 4.21875 -7.015625 4.296875 -7.015625 C 4.328125 -7.03125 4.390625 -7.03125 4.453125 -7.03125 C 4.53125 -7.03125 4.625 -7.03125 4.734375 -7.015625 L 8.359375 -7.015625 L 8.25 -6.296875 L 7.859375 -3.5 L 7.765625 -2.765625 L 7.359375 0 C 8.328125 0 8.96875 -0.046875 9.25 -0.078125 C 9.578125 -0.15625 9.8125 -0.28125 9.984375 -0.453125 C 10.140625 -0.609375 10.234375 -0.875 10.3125 -1.1875 C 10.390625 -1.4375 10.46875 -1.984375 10.578125 -2.765625 L 10.671875 -3.5 L 11.0625 -6.296875 L 11.171875 -7.015625 C 11.28125 -7.875 11.34375 -8.453125 11.34375 -8.703125 L 11.34375 -8.84375 C 11.328125 -9.1875 11.21875 -9.421875 11.0625 -9.546875 C 10.953125 -9.65625 10.75 -9.71875 10.5 -9.765625 C 10.25 -9.796875 9.875 -9.796875 9.34375 -9.796875 L 3.78125 -9.796875 C 3.265625 -9.796875 2.890625 -9.796875 2.65625 -9.765625 C 2.34375 -9.71875 2.09375 -9.640625 1.9375 -9.515625 C 1.734375 -9.390625 1.578125 -9.125 1.46875 -8.75 C 1.40625 -8.5 1.3125 -7.921875 1.1875 -7.015625 Z M 1.1875 -7.015625 "/></g></g></g><g fill="#ebe9e7" fill-opacity="1"><g transform="translate(225.612415, 218.230985)"><g><path d="M 3.921875 -9.796875 C 3.203125 -9.796875 2.71875 -9.796875 2.4375 -9.765625 C 2.078125 -9.71875 1.828125 -9.59375 1.640625 -9.4375 C 1.46875 -9.28125 1.328125 -8.984375 1.234375 -8.578125 C 1.1875 -8.328125 1.109375 -7.8125 0.984375 -7.03125 C 0.96875 -6.875 0.890625 -6.28125 0.734375 -5.203125 C 0.578125 -4.15625 0.46875 -3.34375 0.390625 -2.796875 C 0.28125 -2 0.21875 -1.484375 0.203125 -1.203125 L 0.203125 -1.0625 C 0.203125 -0.796875 0.25 -0.578125 0.34375 -0.4375 C 0.453125 -0.28125 0.65625 -0.15625 0.9375 -0.078125 C 1.203125 -0.046875 1.828125 0 2.765625 0 L 7.203125 0 C 8.015625 0 8.546875 -0.015625 8.8125 -0.046875 C 9.203125 -0.078125 9.5 -0.171875 9.6875 -0.3125 C 9.875 -0.46875 10.015625 -0.75 10.09375 -1.109375 C 10.171875 -1.390625 10.25 -1.9375 10.375 -2.796875 L 3.203125 -2.796875 L 3.703125 -6.296875 C 3.734375 -6.5 3.765625 -6.625 3.765625 -6.6875 C 3.796875 -6.8125 3.84375 -6.890625 3.875 -6.921875 C 3.921875 -6.96875 3.984375 -6.984375 4.0625 -6.984375 C 4.140625 -7.03125 4.328125 -7.03125 4.609375 -7.03125 L 8.15625 -7.03125 C 8.90625 -7.03125 9.40625 -7.046875 9.65625 -7.046875 C 10.140625 -7.09375 10.5 -7.203125 10.6875 -7.390625 C 10.875 -7.546875 11 -7.8125 11.09375 -8.203125 C 11.171875 -8.46875 11.25 -9 11.359375 -9.796875 Z M 3.921875 -9.796875 "/></g></g></g><g fill="#ebe9e7" fill-opacity="1"><g transform="translate(236.852313, 218.230985)"><g><path d="M 1.34375 -9.8125 L 0.953125 -7.046875 L 0.359375 -2.765625 C 0.25 -2.015625 0.203125 -1.5 0.203125 -1.25 C 0.203125 -1.203125 0.171875 -1.140625 0.171875 -1.09375 C 0.171875 -0.765625 0.234375 -0.546875 0.34375 -0.390625 C 0.453125 -0.234375 0.71875 -0.125 1.0625 -0.0625 C 1.328125 -0.015625 1.84375 0 2.59375 0 L 7.140625 0 C 7.109375 0.3125 7.09375 0.53125 7.046875 0.65625 C 7.03125 0.8125 6.984375 0.9375 6.953125 1.03125 C 6.890625 1.125 6.765625 1.203125 6.609375 1.25 C 6.5 1.265625 6.25 1.28125 5.859375 1.28125 L 2.4375 1.28125 C 1.84375 1.28125 1.421875 1.28125 1.1875 1.328125 C 0.765625 1.359375 0.453125 1.46875 0.25 1.625 C 0.0625 1.78125 -0.125 2.09375 -0.25 2.546875 C -0.3125 2.796875 -0.4375 3.3125 -0.59375 4.078125 L 6.578125 4.078125 C 7.390625 4.078125 7.921875 4.0625 8.171875 4.03125 C 8.65625 3.984375 8.96875 3.859375 9.140625 3.65625 C 9.296875 3.484375 9.4375 3.203125 9.515625 2.84375 C 9.59375 2.578125 9.6875 2.0625 9.78125 1.28125 L 9.953125 0 L 10.359375 -2.765625 L 10.953125 -7.046875 C 11.03125 -7.5625 11.0625 -7.921875 11.09375 -8.109375 C 11.125 -8.375 11.125 -8.578125 11.125 -8.734375 C 11.125 -8.984375 11.109375 -9.1875 11.03125 -9.328125 C 10.921875 -9.5625 10.65625 -9.71875 10.21875 -9.78125 C 9.953125 -9.8125 9.40625 -9.8125 8.53125 -9.8125 L 8.140625 -7.046875 L 7.640625 -3.484375 C 7.625 -3.34375 7.609375 -3.25 7.578125 -3.171875 C 7.5625 -3.09375 7.546875 -3.03125 7.515625 -2.984375 C 7.484375 -2.90625 7.421875 -2.84375 7.328125 -2.8125 C 7.265625 -2.796875 7.09375 -2.765625 6.796875 -2.765625 L 3.1875 -2.765625 L 3.78125 -7.046875 C 3.90625 -7.953125 3.953125 -8.5 3.953125 -8.6875 L 3.953125 -8.8125 C 3.953125 -9.171875 3.90625 -9.40625 3.734375 -9.515625 C 3.578125 -9.703125 3.203125 -9.796875 2.640625 -9.8125 Z M 1.34375 -9.8125 "/></g></g></g><g clip-path="url(#3ae87cd66c)"><g clip-path="url(#f89cd88dc4)"><g clip-path="url(#feb784188f)"><path fill="#000000" d="M 176.429688 222.5625 L 176.355469 222.558594 L 176.28125 222.558594 C 175.789062 231.40625 174.316406 232.035156 166.25 231.949219 L 166.242188 232.097656 C 174.308594 232.183594 175.707031 232.839844 175.214844 241.6875 L 175.363281 241.6875 C 175.859375 232.839844 177.328125 232.214844 185.398438 232.296875 L 185.40625 232.148438 C 177.339844 232.066406 175.9375 231.410156 176.429688 222.5625 " fill-opacity="1" fill-rule="evenodd"/></g></g></g><g clip-path="url(#6f00d6bbd7)"><path fill="#000000" d="M 256.144531 224.441406 L 256.144531 224.324219 C 269.636719 224.324219 270.617188 223.199219 270.617188 216.886719 L 270.839844 216.886719 C 270.839844 223.199219 271.820312 224.324219 285.3125 224.324219 L 285.3125 224.441406 C 271.820312 224.441406 270.839844 225.5625 270.839844 231.875 L 270.617188 231.875 C 270.617188 225.5625 269.636719 224.441406 256.144531 224.441406 " fill-opacity="1" fill-rule="evenodd"/></g></svg>